#!OML:ASF F:\VICON\USERDATA\INSTALL\rory3\rory3.ASF
:FULLY-SPECIFIED
:DEGREES
443
root -12.0956 17.9676 12.3572 -225.653 80.313 133.824
lowerback 10.7551 -0.16797 -5.18293
upperback 1.64048 -0.800848 -1.38313
thorax -4.26313 -0.290491 1.58567
lowerneck -10.6744 0.328685 -12.3604
upperneck 45.2715 7.32068 1.96357
head 18.6155 2.07981 4.79941
rclavicle -3.08116e-015 -1.11319e-014
rhumerus -40.435 -21.598 -69.9312
rradius 23.8396
rwrist 10.8084
rhand -15.6314 7.30848
rfingers 7.12502
rthumb 10.5557 -22.4064
lclavicle -3.08116e-015 -1.11319e-014
lhumerus -23.2756 -2.02909 83.7088
lradius 43.1294
lwrist -2.5099
lhand -20.8462 24.8219
lfingers 7.12502
lthumb 5.52289 54.7299
rfemur -26.2592 -6.18742 12.811
rtibia 23.3908
rfoot -1.5719 -7.42192
rtoes -5.87033
lfemur 8.94638 -3.77455 -29.5194
ltibia 13.8005
lfoot 3.41312 -23.7382
ltoes 15.4582
444
root -12.219 17.9876 12.3378 -226.425 80.7131 133.222
lowerback 10.8604 -0.0961963 -4.86895
upperback 1.6903 -0.673545 -1.3815
thorax -4.2815 -0.232393 1.39397
lowerneck -10.495 0.293728 -12.4073
upperneck 45.3606 7.33995 1.86121
head 18.6351 2.07007 4.76206
rclavicle 1.09332e-015 -2.38542e-015
rhumerus -40.6786 -21.6103 -70.0523
rradius 23.8582
rwrist 10.4908
rhand -15.5553 7.5597
rfingers 7.12502
rthumb 10.6291 -22.1515
lclavicle 1.09332e-015 -2.38542e-015
lhumerus -23.4655 -1.80081 83.6805
lradius 43.208
lwrist -2.70917
lhand -20.5014 24.9212
lfingers 7.12502
lthumb 5.85576 54.8203
rfemur -26.3087 -6.76843 13.2665
rtibia 24.2016
rfoot -2.15528 -6.87926
rtoes -7.2495
lfemur 8.59436 -3.83203 -29.5084
ltibia 14.0707
lfoot 3.03373 -23.1908
ltoes 14.7842
445
root -12.339 18.0078 12.3213 -227.802 81.1318 132.034
lowerback 10.9847 0.0141903 -4.64229
upperback 1.74365 -0.505216 -1.38293
thorax -4.30674 -0.152343 1.24182
lowerneck -10.3663 0.27681 -12.3517
upperneck 45.4838 7.40257 1.70066
head 18.6943 2.0843 4.69156
rclavicle -8.59744e-015 -1.31198e-014
rhumerus -40.9381 -21.701 -70.1561
rradius 23.8878
rwrist 10.3883
rhand -15.4376 7.81403
rfingers 7.12502
rthumb 10.7427 -21.8913
lclavicle -8.59744e-015 -1.31198e-014
lhumerus -23.6947 -1.16234 83.7413
lradius 43.186
lwrist -3.30052
lhand -20.1308 24.7066
lfingers 7.12502
lthumb 6.21358 54.5955
rfemur -26.2629 -6.44786 13.4199
rtibia 25.1584
rfoot -2.79398 -7.01583
rtoes -6.48864
lfemur 8.23806 -3.81439 -29.5262
ltibia 14.3804
lfoot 2.66513 -22.6862
ltoes 14.0709
446
root -12.4576 18.026 12.3046 -229.301 81.5293 130.595
lowerback 10.9295 0.101571 -4.46748
upperback 1.80228 -0.363506 -1.40339
thorax -4.22394 -0.0871247 1.10182
lowerneck -10.3314 0.23166 -12.1731
upperneck 45.5624 7.41676 1.44837
head 18.767 2.08288 4.54828
rclavicle -1.09332e-014 -1.8487e-014
rhumerus -41.0886 -21.6674 -70.4346
rradius 23.9651
rwrist 10.2875
rhand -15.2442 7.83077
rfingers 7.12502
rthumb 10.9292 -21.8648
lclavicle -1.09332e-014 -1.8487e-014
lhumerus -23.8505 -0.600349 83.6315
lradius 43.1279
lwrist -3.66975
lhand -19.9154 24.4218
lfingers 7.12502
lthumb 6.42147 54.3045
rfemur -26.3799 -6.17142 13.5788
rtibia 26.259
rfoot -3.29648 -7.17497
rtoes -5.55706
lfemur 7.69127 -3.74311 -29.5588
ltibia 14.7475
lfoot 2.1724 -22.2799
ltoes 12.6404
447
root -12.5746 18.0405 12.2871 -230.045 81.9147 129.844
lowerback 10.8127 0.143377 -4.1503
upperback 1.82764 -0.265807 -1.42413
thorax -4.13964 -0.0457489 0.888122
lowerneck -10.2848 0.178644 -12.1451
upperneck 45.6144 7.35775 1.3912
head 18.8022 2.05345 4.50872
rclavicle 2.24875e-014 1.53064e-014
rhumerus -41.2218 -21.6095 -70.7495
rradius 24.0373
rwrist 10.3156
rhand -15.1099 7.73164
rfingers 7.12502
rthumb 11.0587 -21.957
lclavicle 2.24875e-014 1.53064e-014
lhumerus -23.9862 -0.395814 83.4079
lradius 42.9704
lwrist -3.5808
lhand -20.1155 24.1466
lfingers 7.12502
lthumb 6.22828 54.0351
rfemur -26.5757 -6.20268 13.9026
rtibia 27.5169
rfoot -3.69245 -7.26995
rtoes -5.69167
lfemur 7.07009 -3.93662 -29.5546
ltibia 15.136
lfoot 1.71626 -21.7228
ltoes 11.0075
